solid Untitled-54f31d52
facet normal 0.0 0.0 -1.0
  outer loop
    vertex 28.499999999999982 2.598076211353317 0.0
    vertex 28.551111260566376 0.38822856765378205 0.0
    vertex 28.499999999999982 7.049916206369744e-16 0.0
  endloop
endfacet
facet normal 0.0 0.0 -1.0
  outer loop
    vertex 28.551111260566376 0.38822856765378205 0.0
    vertex 28.499999999999982 2.598076211353317 0.0
    vertex 28.700961894323317 0.7500000000000008 0.0
  endloop
endfacet
facet normal 0.0 0.0 -1.0
  outer loop
    vertex 28.700961894323317 0.7500000000000008 0.0
    vertex 28.499999999999982 2.598076211353317 0.0
    vertex 28.939339828220156 1.0606601717798219 0.0
  endloop
endfacet
facet normal 0.0 0.0 -1.0
  outer loop
    vertex 28.939339828220156 1.0606601717798219 0.0
    vertex 28.499999999999982 2.598076211353317 0.0
    vertex 29.24999999999998 1.2990381056766587 0.0
  endloop
endfacet
facet normal 0.0 0.0 -1.0
  outer loop
    vertex 29.24999999999998 1.2990381056766587 0.0
    vertex 28.499999999999982 2.598076211353317 0.0
    vertex 31.499999999999975 2.598076211353316 0.0
  endloop
endfacet
facet normal 0.0 0.0 -1.0
  outer loop
    vertex 29.24999999999998 1.2990381056766587 0.0
    vertex 31.499999999999975 2.598076211353316 0.0
    vertex 29.6117714323462 1.4488887394336032 0.0
  endloop
endfacet
facet normal 0.0 0.0 -1.0
  outer loop
    vertex 29.6117714323462 1.4488887394336032 0.0
    vertex 31.499999999999975 2.598076211353316 0.0
    vertex 29.99999999999998 1.5000000000000007 0.0
  endloop
endfacet
facet normal 0.0 0.0 -1.0
  outer loop
    vertex 29.99999999999998 1.5000000000000007 0.0
    vertex 31.499999999999975 2.598076211353316 0.0
    vertex 30.38822856765376 1.4488887394336032 0.0
  endloop
endfacet
facet normal 0.0 0.0 -1.0
  outer loop
    vertex 30.38822856765376 1.4488887394336032 0.0
    vertex 31.499999999999975 2.598076211353316 0.0
    vertex 30.74999999999998 1.299038105676658 0.0
  endloop
endfacet
facet normal 0.0 0.0 -1.0
  outer loop
    vertex 30.74999999999998 1.299038105676658 0.0
    vertex 31.499999999999975 2.598076211353316 0.0
    vertex 31.0606601717798 1.0606601717798219 0.0
  endloop
endfacet
facet normal 0.0 0.0 -1.0
  outer loop
    vertex 31.0606601717798 1.0606601717798219 0.0
    vertex 31.499999999999975 2.598076211353316 0.0
    vertex 31.29903810567664 0.75 0.0
  endloop
endfacet
facet normal 0.0 0.0 -1.0
  outer loop
    vertex 31.29903810567664 0.75 0.0
    vertex 31.499999999999975 2.598076211353316 0.0
    vertex 31.44888873943358 0.38822856765378133 0.0
  endloop
endfacet
facet normal 0.0 0.0 -1.0
  outer loop
    vertex 31.44888873943358 0.38822856765378133 0.0
    vertex 31.499999999999975 2.598076211353316 0.0
    vertex 31.499999999999975 3.524958103184872e-16 0.0
  endloop
endfacet
facet normal 0.0 0.0 -1.0
  outer loop
    vertex 31.499999999999975 3.524958103184872e-16 0.0
    vertex 31.499999999999975 2.598076211353316 0.0
    vertex 32.99999999999998 3.524958103184872e-16 0.0
  endloop
endfacet
facet normal 0.0 0.0 -1.0
  outer loop
    vertex 28.499999999999982 2.598076211353317 0.0
    vertex 28.499999999999975 -2.598076211353315 0.0
    vertex 26.99999999999998 7.049916206369744e-16 0.0
  endloop
endfacet
facet normal 0.0 0.0 -1.0
  outer loop
    vertex 28.499999999999975 -2.598076211353315 0.0
    vertex 28.499999999999982 2.598076211353317 0.0
    vertex 28.499999999999982 7.049916206369744e-16 0.0
  endloop
endfacet
facet normal 0.0 0.0 -1.0
  outer loop
    vertex 28.499999999999975 -2.598076211353315 0.0
    vertex 28.499999999999982 7.049916206369744e-16 0.0
    vertex 28.551111260566376 -0.3882285676537803 0.0
  endloop
endfacet
facet normal 0.0 0.0 -1.0
  outer loop
    vertex 28.499999999999975 -2.598076211353315 0.0
    vertex 28.551111260566376 -0.3882285676537803 0.0
    vertex 28.700961894323317 -0.7499999999999993 0.0
  endloop
endfacet
facet normal 0.0 0.0 -1.0
  outer loop
    vertex 28.499999999999975 -2.598076211353315 0.0
    vertex 28.700961894323317 -0.7499999999999993 0.0
    vertex 28.939339828220156 -1.0606601717798203 0.0
  endloop
endfacet
facet normal 0.0 0.0 -1.0
  outer loop
    vertex 28.499999999999975 -2.598076211353315 0.0
    vertex 28.939339828220156 -1.0606601717798203 0.0
    vertex 29.24999999999998 -1.2990381056766573 0.0
  endloop
endfacet
facet normal 0.0 0.0 -1.0
  outer loop
    vertex 28.499999999999975 -2.598076211353315 0.0
    vertex 29.24999999999998 -1.2990381056766573 0.0
    vertex 31.499999999999975 -2.598076211353317 0.0
  endloop
endfacet
facet normal 0.0 0.0 -1.0
  outer loop
    vertex 31.499999999999975 -2.598076211353317 0.0
    vertex 29.24999999999998 -1.2990381056766573 0.0
    vertex 29.6117714323462 -1.4488887394336019 0.0
  endloop
endfacet
facet normal 0.0 0.0 -1.0
  outer loop
    vertex 31.499999999999975 -2.598076211353317 0.0
    vertex 29.6117714323462 -1.4488887394336019 0.0
    vertex 29.99999999999998 -1.4999999999999998 0.0
  endloop
endfacet
facet normal 0.0 0.0 -1.0
  outer loop
    vertex 31.499999999999975 -2.598076211353317 0.0
    vertex 29.99999999999998 -1.4999999999999998 0.0
    vertex 30.38822856765376 -1.4488887394336023 0.0
  endloop
endfacet
facet normal 0.0 0.0 -1.0
  outer loop
    vertex 31.499999999999975 -2.598076211353317 0.0
    vertex 30.38822856765376 -1.4488887394336023 0.0
    vertex 30.74999999999998 -1.2990381056766582 0.0
  endloop
endfacet
facet normal 0.0 0.0 -1.0
  outer loop
    vertex 31.499999999999975 -2.598076211353317 0.0
    vertex 30.74999999999998 -1.2990381056766582 0.0
    vertex 31.0606601717798 -1.0606601717798212 0.0
  endloop
endfacet
facet normal 0.0 0.0 -1.0
  outer loop
    vertex 31.499999999999975 -2.598076211353317 0.0
    vertex 31.0606601717798 -1.0606601717798212 0.0
    vertex 31.29903810567664 -0.7500000000000003 0.0
  endloop
endfacet
facet normal 0.0 0.0 -1.0
  outer loop
    vertex 31.499999999999975 -2.598076211353317 0.0
    vertex 31.29903810567664 -0.7500000000000003 0.0
    vertex 31.44888873943358 -0.38822856765378205 0.0
  endloop
endfacet
facet normal 0.0 0.0 -1.0
  outer loop
    vertex 31.499999999999975 -2.598076211353317 0.0
    vertex 31.44888873943358 -0.38822856765378205 0.0
    vertex 31.499999999999975 3.524958103184872e-16 0.0
  endloop
endfacet
facet normal 0.0 0.0 -1.0
  outer loop
    vertex 31.499999999999975 -2.598076211353317 0.0
    vertex 31.499999999999975 3.524958103184872e-16 0.0
    vertex 32.99999999999998 3.524958103184872e-16 0.0
  endloop
endfacet
facet normal 0.5000000000000008 -0.8660254037844384 0.0
  outer loop
    vertex 29.24999999999998 1.2990381056766587 15.0
    vertex 28.939339828220156 1.0606601717798219 0.0
    vertex 29.24999999999998 1.2990381056766587 0.0
  endloop
endfacet
facet normal 0.7071067811865478 -0.7071067811865472 0.0
  outer loop
    vertex 28.939339828220156 1.0606601717798219 0.0
    vertex 29.24999999999998 1.2990381056766587 15.0
    vertex 28.939339828220156 1.0606601717798219 15.0
  endloop
endfacet
facet normal 0.7071067811865478 -0.7071067811865472 0.0
  outer loop
    vertex 28.939339828220156 1.0606601717798219 0.0
    vertex 28.700961894323317 0.7500000000000008 15.0
    vertex 28.700961894323317 0.7500000000000008 0.0
  endloop
endfacet
facet normal 0.8660254037844386 -0.5000000000000003 0.0
  outer loop
    vertex 28.700961894323317 0.7500000000000008 15.0
    vertex 28.939339828220156 1.0606601717798219 0.0
    vertex 28.939339828220156 1.0606601717798219 15.0
  endloop
endfacet
facet normal 0.0 -1.0 0.0
  outer loop
    vertex 29.99999999999998 1.5000000000000007 15.0
    vertex 29.6117714323462 1.4488887394336032 0.0
    vertex 29.99999999999998 1.5000000000000007 0.0
  endloop
endfacet
facet normal 0.25881904510252013 -0.9659258262890684 0.0
  outer loop
    vertex 29.6117714323462 1.4488887394336032 0.0
    vertex 29.99999999999998 1.5000000000000007 15.0
    vertex 29.6117714323462 1.4488887394336032 15.0
  endloop
endfacet
facet normal 0.8660254037844384 -0.5000000000000006 0.0
  outer loop
    vertex 32.99999999999998 3.524958103184872e-16 0.0
    vertex 31.499999999999975 -2.598076211353317 15.0
    vertex 31.499999999999975 -2.598076211353317 0.0
  endloop
endfacet
facet normal 0.8660254037844384 -0.5000000000000006 0.0
  outer loop
    vertex 31.499999999999975 -2.598076211353317 15.0
    vertex 32.99999999999998 3.524958103184872e-16 0.0
    vertex 32.99999999999998 3.524958103184872e-16 15.0
  endloop
endfacet
facet normal -1.0 -2.4059996718246644e-16 0.0
  outer loop
    vertex 31.499999999999975 3.524958103184872e-16 15.0
    vertex 31.44888873943358 -0.38822856765378205 0.0
    vertex 31.44888873943358 -0.38822856765378205 15.0
  endloop
endfacet
facet normal -0.9659258262890686 0.25881904510252 0.0
  outer loop
    vertex 31.44888873943358 -0.38822856765378205 0.0
    vertex 31.499999999999975 3.524958103184872e-16 15.0
    vertex 31.499999999999975 3.524958103184872e-16 0.0
  endloop
endfacet
facet normal 0.7071067811865478 0.7071067811865472 0.0
  outer loop
    vertex 28.939339828220156 -1.0606601717798203 15.0
    vertex 29.24999999999998 -1.2990381056766573 0.0
    vertex 28.939339828220156 -1.0606601717798203 0.0
  endloop
endfacet
facet normal 0.5000000000000009 0.8660254037844384 0.0
  outer loop
    vertex 29.24999999999998 -1.2990381056766573 0.0
    vertex 28.939339828220156 -1.0606601717798203 15.0
    vertex 29.24999999999998 -1.2990381056766573 15.0
  endloop
endfacet
facet normal 1.0 5.346665937388143e-17 0.0
  outer loop
    vertex 28.499999999999982 7.049916206369744e-16 0.0
    vertex 28.551111260566376 -0.3882285676537803 15.0
    vertex 28.551111260566376 -0.3882285676537803 0.0
  endloop
endfacet
facet normal 0.9659258262890685 0.25881904510251985 0.0
  outer loop
    vertex 28.551111260566376 -0.3882285676537803 15.0
    vertex 28.499999999999982 7.049916206369744e-16 0.0
    vertex 28.499999999999982 7.049916206369744e-16 15.0
  endloop
endfacet
facet normal 0.0 0.0 1.0
  outer loop
    vertex 28.499999999999975 -2.598076211353315 15.0
    vertex 28.551111260566376 -0.3882285676537803 15.0
    vertex 28.499999999999982 7.049916206369744e-16 15.0
  endloop
endfacet
facet normal 0.0 0.0 1.0
  outer loop
    vertex 28.551111260566376 -0.3882285676537803 15.0
    vertex 28.499999999999975 -2.598076211353315 15.0
    vertex 28.700961894323317 -0.7499999999999993 15.0
  endloop
endfacet
facet normal 0.0 0.0 1.0
  outer loop
    vertex 28.700961894323317 -0.7499999999999993 15.0
    vertex 28.499999999999975 -2.598076211353315 15.0
    vertex 28.939339828220156 -1.0606601717798203 15.0
  endloop
endfacet
facet normal 0.0 0.0 1.0
  outer loop
    vertex 28.939339828220156 -1.0606601717798203 15.0
    vertex 28.499999999999975 -2.598076211353315 15.0
    vertex 29.24999999999998 -1.2990381056766573 15.0
  endloop
endfacet
facet normal 0.0 0.0 1.0
  outer loop
    vertex 29.24999999999998 -1.2990381056766573 15.0
    vertex 28.499999999999975 -2.598076211353315 15.0
    vertex 31.499999999999975 -2.598076211353317 15.0
  endloop
endfacet
facet normal 0.0 0.0 1.0
  outer loop
    vertex 29.24999999999998 -1.2990381056766573 15.0
    vertex 31.499999999999975 -2.598076211353317 15.0
    vertex 29.6117714323462 -1.4488887394336019 15.0
  endloop
endfacet
facet normal 0.0 0.0 1.0
  outer loop
    vertex 29.6117714323462 -1.4488887394336019 15.0
    vertex 31.499999999999975 -2.598076211353317 15.0
    vertex 29.99999999999998 -1.4999999999999998 15.0
  endloop
endfacet
facet normal 0.0 0.0 1.0
  outer loop
    vertex 29.99999999999998 -1.4999999999999998 15.0
    vertex 31.499999999999975 -2.598076211353317 15.0
    vertex 30.38822856765376 -1.4488887394336023 15.0
  endloop
endfacet
facet normal 0.0 0.0 1.0
  outer loop
    vertex 30.38822856765376 -1.4488887394336023 15.0
    vertex 31.499999999999975 -2.598076211353317 15.0
    vertex 30.74999999999998 -1.2990381056766582 15.0
  endloop
endfacet
facet normal 0.0 0.0 1.0
  outer loop
    vertex 30.74999999999998 -1.2990381056766582 15.0
    vertex 31.499999999999975 -2.598076211353317 15.0
    vertex 31.0606601717798 -1.0606601717798212 15.0
  endloop
endfacet
facet normal 0.0 0.0 1.0
  outer loop
    vertex 31.0606601717798 -1.0606601717798212 15.0
    vertex 31.499999999999975 -2.598076211353317 15.0
    vertex 31.29903810567664 -0.7500000000000003 15.0
  endloop
endfacet
facet normal 0.0 0.0 1.0
  outer loop
    vertex 31.29903810567664 -0.7500000000000003 15.0
    vertex 31.499999999999975 -2.598076211353317 15.0
    vertex 31.44888873943358 -0.38822856765378205 15.0
  endloop
endfacet
facet normal 0.0 0.0 1.0
  outer loop
    vertex 31.44888873943358 -0.38822856765378205 15.0
    vertex 31.499999999999975 -2.598076211353317 15.0
    vertex 31.499999999999975 3.524958103184872e-16 15.0
  endloop
endfacet
facet normal 0.0 0.0 1.0
  outer loop
    vertex 31.499999999999975 3.524958103184872e-16 15.0
    vertex 31.499999999999975 -2.598076211353317 15.0
    vertex 32.99999999999998 3.524958103184872e-16 15.0
  endloop
endfacet
facet normal 0.0 0.0 1.0
  outer loop
    vertex 31.499999999999975 3.524958103184872e-16 15.0
    vertex 32.99999999999998 3.524958103184872e-16 15.0
    vertex 31.499999999999975 2.598076211353316 15.0
  endloop
endfacet
facet normal 0.0 0.0 1.0
  outer loop
    vertex 28.499999999999975 -2.598076211353315 15.0
    vertex 28.499999999999982 2.598076211353317 15.0
    vertex 26.99999999999998 7.049916206369744e-16 15.0
  endloop
endfacet
facet normal 0.0 0.0 1.0
  outer loop
    vertex 28.499999999999982 2.598076211353317 15.0
    vertex 28.499999999999975 -2.598076211353315 15.0
    vertex 28.499999999999982 7.049916206369744e-16 15.0
  endloop
endfacet
facet normal 0.0 0.0 1.0
  outer loop
    vertex 28.499999999999982 2.598076211353317 15.0
    vertex 28.499999999999982 7.049916206369744e-16 15.0
    vertex 28.551111260566376 0.38822856765378205 15.0
  endloop
endfacet
facet normal 0.0 0.0 1.0
  outer loop
    vertex 28.499999999999982 2.598076211353317 15.0
    vertex 28.551111260566376 0.38822856765378205 15.0
    vertex 28.700961894323317 0.7500000000000008 15.0
  endloop
endfacet
facet normal 0.0 0.0 1.0
  outer loop
    vertex 28.499999999999982 2.598076211353317 15.0
    vertex 28.700961894323317 0.7500000000000008 15.0
    vertex 28.939339828220156 1.0606601717798219 15.0
  endloop
endfacet
facet normal 0.0 0.0 1.0
  outer loop
    vertex 28.499999999999982 2.598076211353317 15.0
    vertex 28.939339828220156 1.0606601717798219 15.0
    vertex 29.24999999999998 1.2990381056766587 15.0
  endloop
endfacet
facet normal 0.0 0.0 1.0
  outer loop
    vertex 28.499999999999982 2.598076211353317 15.0
    vertex 29.24999999999998 1.2990381056766587 15.0
    vertex 31.499999999999975 2.598076211353316 15.0
  endloop
endfacet
facet normal 0.0 0.0 1.0
  outer loop
    vertex 31.499999999999975 2.598076211353316 15.0
    vertex 29.24999999999998 1.2990381056766587 15.0
    vertex 29.6117714323462 1.4488887394336032 15.0
  endloop
endfacet
facet normal 0.0 0.0 1.0
  outer loop
    vertex 31.499999999999975 2.598076211353316 15.0
    vertex 29.6117714323462 1.4488887394336032 15.0
    vertex 29.99999999999998 1.5000000000000007 15.0
  endloop
endfacet
facet normal 0.0 0.0 1.0
  outer loop
    vertex 31.499999999999975 2.598076211353316 15.0
    vertex 29.99999999999998 1.5000000000000007 15.0
    vertex 30.38822856765376 1.4488887394336032 15.0
  endloop
endfacet
facet normal 0.0 0.0 1.0
  outer loop
    vertex 31.499999999999975 2.598076211353316 15.0
    vertex 30.38822856765376 1.4488887394336032 15.0
    vertex 30.74999999999998 1.299038105676658 15.0
  endloop
endfacet
facet normal 0.0 0.0 1.0
  outer loop
    vertex 31.499999999999975 2.598076211353316 15.0
    vertex 30.74999999999998 1.299038105676658 15.0
    vertex 31.0606601717798 1.0606601717798219 15.0
  endloop
endfacet
facet normal 0.0 0.0 1.0
  outer loop
    vertex 31.499999999999975 2.598076211353316 15.0
    vertex 31.0606601717798 1.0606601717798219 15.0
    vertex 31.29903810567664 0.75 15.0
  endloop
endfacet
facet normal 0.0 0.0 1.0
  outer loop
    vertex 31.499999999999975 2.598076211353316 15.0
    vertex 31.29903810567664 0.75 15.0
    vertex 31.44888873943358 0.38822856765378133 15.0
  endloop
endfacet
facet normal 0.0 0.0 1.0
  outer loop
    vertex 31.499999999999975 2.598076211353316 15.0
    vertex 31.44888873943358 0.38822856765378133 15.0
    vertex 31.499999999999975 3.524958103184872e-16 15.0
  endloop
endfacet
facet normal -0.7071067811865478 -0.7071067811865475 0.0
  outer loop
    vertex 31.0606601717798 1.0606601717798219 15.0
    vertex 31.29903810567664 0.75 0.0
    vertex 31.29903810567664 0.75 15.0
  endloop
endfacet
facet normal -0.8660254037844388 -0.4999999999999999 0.0
  outer loop
    vertex 31.29903810567664 0.75 0.0
    vertex 31.0606601717798 1.0606601717798219 15.0
    vertex 31.0606601717798 1.0606601717798219 0.0
  endloop
endfacet
facet normal 0.9659258262890685 0.25881904510251985 0.0
  outer loop
    vertex 28.551111260566376 -0.3882285676537803 0.0
    vertex 28.700961894323317 -0.7499999999999993 15.0
    vertex 28.700961894323317 -0.7499999999999993 0.0
  endloop
endfacet
facet normal 0.8660254037844387 0.5000000000000001 0.0
  outer loop
    vertex 28.700961894323317 -0.7499999999999993 15.0
    vertex 28.551111260566376 -0.3882285676537803 0.0
    vertex 28.551111260566376 -0.3882285676537803 15.0
  endloop
endfacet
facet normal -0.8660254037844386 0.4999999999999999 0.0
  outer loop
    vertex 28.499999999999982 2.598076211353317 15.0
    vertex 26.99999999999998 7.049916206369744e-16 0.0
    vertex 26.99999999999998 7.049916206369744e-16 15.0
  endloop
endfacet
facet normal -0.8660254037844386 0.4999999999999999 0.0
  outer loop
    vertex 26.99999999999998 7.049916206369744e-16 0.0
    vertex 28.499999999999982 2.598076211353317 15.0
    vertex 28.499999999999982 2.598076211353317 0.0
  endloop
endfacet
facet normal 0.25881904510252013 -0.9659258262890684 0.0
  outer loop
    vertex 29.6117714323462 1.4488887394336032 15.0
    vertex 29.24999999999998 1.2990381056766587 0.0
    vertex 29.6117714323462 1.4488887394336032 0.0
  endloop
endfacet
facet normal 0.5000000000000008 -0.8660254037844384 0.0
  outer loop
    vertex 29.24999999999998 1.2990381056766587 0.0
    vertex 29.6117714323462 1.4488887394336032 15.0
    vertex 29.24999999999998 1.2990381056766587 15.0
  endloop
endfacet
facet normal -0.866025403784439 -0.49999999999999933 -0.0
  outer loop
    vertex 26.99999999999998 7.049916206369744e-16 15.0
    vertex 28.499999999999975 -2.598076211353315 0.0
    vertex 28.499999999999975 -2.598076211353315 15.0
  endloop
endfacet
facet normal -0.866025403784439 -0.49999999999999933 -0.0
  outer loop
    vertex 28.499999999999975 -2.598076211353315 0.0
    vertex 26.99999999999998 7.049916206369744e-16 15.0
    vertex 26.99999999999998 7.049916206369744e-16 0.0
  endloop
endfacet
facet normal -0.7071067811865478 -0.7071067811865475 0.0
  outer loop
    vertex 31.0606601717798 1.0606601717798219 15.0
    vertex 30.74999999999998 1.299038105676658 0.0
    vertex 31.0606601717798 1.0606601717798219 0.0
  endloop
endfacet
facet normal -0.5000000000000008 -0.8660254037844383 0.0
  outer loop
    vertex 30.74999999999998 1.299038105676658 0.0
    vertex 31.0606601717798 1.0606601717798219 15.0
    vertex 30.74999999999998 1.299038105676658 15.0
  endloop
endfacet
facet normal 2.3499720687899147e-16 1.0 0.0
  outer loop
    vertex 28.499999999999982 2.598076211353317 15.0
    vertex 31.499999999999975 2.598076211353316 0.0
    vertex 28.499999999999982 2.598076211353317 0.0
  endloop
endfacet
facet normal 2.3499720687899147e-16 1.0 0.0
  outer loop
    vertex 31.499999999999975 2.598076211353316 0.0
    vertex 28.499999999999982 2.598076211353317 15.0
    vertex 31.499999999999975 2.598076211353316 15.0
  endloop
endfacet
facet normal -0.9659258262890684 -0.2588190451025201 0.0
  outer loop
    vertex 31.44888873943358 0.38822856765378133 15.0
    vertex 31.499999999999975 3.524958103184872e-16 0.0
    vertex 31.499999999999975 3.524958103184872e-16 15.0
  endloop
endfacet
facet normal -1.0 -2.4059996718246644e-16 0.0
  outer loop
    vertex 31.499999999999975 3.524958103184872e-16 0.0
    vertex 31.44888873943358 0.38822856765378133 15.0
    vertex 31.44888873943358 0.38822856765378133 0.0
  endloop
endfacet
facet normal 0.8660254037844386 0.5000000000000001 0.0
  outer loop
    vertex 31.499999999999975 2.598076211353316 0.0
    vertex 32.99999999999998 3.524958103184872e-16 15.0
    vertex 32.99999999999998 3.524958103184872e-16 0.0
  endloop
endfacet
facet normal 0.8660254037844386 0.5000000000000001 0.0
  outer loop
    vertex 32.99999999999998 3.524958103184872e-16 15.0
    vertex 31.499999999999975 2.598076211353316 0.0
    vertex 31.499999999999975 2.598076211353316 15.0
  endloop
endfacet
facet normal -0.8660254037844388 -0.4999999999999999 0.0
  outer loop
    vertex 31.29903810567664 0.75 15.0
    vertex 31.44888873943358 0.38822856765378133 0.0
    vertex 31.44888873943358 0.38822856765378133 15.0
  endloop
endfacet
facet normal -0.9659258262890684 -0.2588190451025201 0.0
  outer loop
    vertex 31.44888873943358 0.38822856765378133 0.0
    vertex 31.29903810567664 0.75 15.0
    vertex 31.29903810567664 0.75 0.0
  endloop
endfacet
facet normal 0.2588190451025205 0.9659258262890684 0.0
  outer loop
    vertex 29.6117714323462 -1.4488887394336019 15.0
    vertex 29.99999999999998 -1.4999999999999998 0.0
    vertex 29.6117714323462 -1.4488887394336019 0.0
  endloop
endfacet
facet normal 4.455554947823453e-16 1.0 0.0
  outer loop
    vertex 29.99999999999998 -1.4999999999999998 0.0
    vertex 29.6117714323462 -1.4488887394336019 15.0
    vertex 29.99999999999998 -1.4999999999999998 15.0
  endloop
endfacet
facet normal -5.874930171974787e-16 -1.0 -0.0
  outer loop
    vertex 31.499999999999975 -2.598076211353317 15.0
    vertex 28.499999999999975 -2.598076211353315 0.0
    vertex 31.499999999999975 -2.598076211353317 0.0
  endloop
endfacet
facet normal -5.874930171974787e-16 -1.0 -0.0
  outer loop
    vertex 28.499999999999975 -2.598076211353315 0.0
    vertex 31.499999999999975 -2.598076211353317 15.0
    vertex 28.499999999999975 -2.598076211353315 15.0
  endloop
endfacet
facet normal 0.5000000000000009 0.8660254037844384 0.0
  outer loop
    vertex 29.24999999999998 -1.2990381056766573 15.0
    vertex 29.6117714323462 -1.4488887394336019 0.0
    vertex 29.24999999999998 -1.2990381056766573 0.0
  endloop
endfacet
facet normal 0.2588190451025205 0.9659258262890684 0.0
  outer loop
    vertex 29.6117714323462 -1.4488887394336019 0.0
    vertex 29.24999999999998 -1.2990381056766573 15.0
    vertex 29.6117714323462 -1.4488887394336019 15.0
  endloop
endfacet
facet normal 4.455554947823453e-16 1.0 0.0
  outer loop
    vertex 29.99999999999998 -1.4999999999999998 15.0
    vertex 30.38822856765376 -1.4488887394336023 0.0
    vertex 29.99999999999998 -1.4999999999999998 0.0
  endloop
endfacet
facet normal -0.25881904510252085 0.9659258262890684 0.0
  outer loop
    vertex 30.38822856765376 -1.4488887394336023 0.0
    vertex 29.99999999999998 -1.4999999999999998 15.0
    vertex 30.38822856765376 -1.4488887394336023 15.0
  endloop
endfacet
facet normal 0.8660254037844387 0.5000000000000001 0.0
  outer loop
    vertex 28.700961894323317 -0.7499999999999993 0.0
    vertex 28.939339828220156 -1.0606601717798203 15.0
    vertex 28.939339828220156 -1.0606601717798203 0.0
  endloop
endfacet
facet normal 0.7071067811865478 0.7071067811865472 0.0
  outer loop
    vertex 28.939339828220156 -1.0606601717798203 15.0
    vertex 28.700961894323317 -0.7499999999999993 0.0
    vertex 28.700961894323317 -0.7499999999999993 15.0
  endloop
endfacet
facet normal 0.9659258262890686 -0.2588190451025201 0.0
  outer loop
    vertex 28.551111260566376 0.38822856765378205 0.0
    vertex 28.499999999999982 7.049916206369744e-16 15.0
    vertex 28.499999999999982 7.049916206369744e-16 0.0
  endloop
endfacet
facet normal 1.0 5.346665937388143e-17 0.0
  outer loop
    vertex 28.499999999999982 7.049916206369744e-16 15.0
    vertex 28.551111260566376 0.38822856765378205 0.0
    vertex 28.551111260566376 0.38822856765378205 15.0
  endloop
endfacet
facet normal -0.25881904510252085 0.9659258262890684 0.0
  outer loop
    vertex 30.38822856765376 -1.4488887394336023 15.0
    vertex 30.74999999999998 -1.2990381056766582 0.0
    vertex 30.38822856765376 -1.4488887394336023 0.0
  endloop
endfacet
facet normal -0.49999999999999967 0.8660254037844389 0.0
  outer loop
    vertex 30.74999999999998 -1.2990381056766582 0.0
    vertex 30.38822856765376 -1.4488887394336023 15.0
    vertex 30.74999999999998 -1.2990381056766582 15.0
  endloop
endfacet
facet normal -0.49999999999999967 0.8660254037844389 0.0
  outer loop
    vertex 30.74999999999998 -1.2990381056766582 15.0
    vertex 31.0606601717798 -1.0606601717798212 0.0
    vertex 30.74999999999998 -1.2990381056766582 0.0
  endloop
endfacet
facet normal -0.7071067811865461 0.707106781186549 0.0
  outer loop
    vertex 31.0606601717798 -1.0606601717798212 0.0
    vertex 30.74999999999998 -1.2990381056766582 15.0
    vertex 31.0606601717798 -1.0606601717798212 15.0
  endloop
endfacet
facet normal -0.8660254037844384 0.5000000000000006 0.0
  outer loop
    vertex 31.29903810567664 -0.7500000000000003 15.0
    vertex 31.0606601717798 -1.0606601717798212 0.0
    vertex 31.0606601717798 -1.0606601717798212 15.0
  endloop
endfacet
facet normal -0.7071067811865461 0.707106781186549 0.0
  outer loop
    vertex 31.0606601717798 -1.0606601717798212 0.0
    vertex 31.29903810567664 -0.7500000000000003 15.0
    vertex 31.29903810567664 -0.7500000000000003 0.0
  endloop
endfacet
facet normal -0.9659258262890686 0.25881904510252 0.0
  outer loop
    vertex 31.44888873943358 -0.38822856765378205 15.0
    vertex 31.29903810567664 -0.7500000000000003 0.0
    vertex 31.29903810567664 -0.7500000000000003 15.0
  endloop
endfacet
facet normal -0.8660254037844384 0.5000000000000006 0.0
  outer loop
    vertex 31.29903810567664 -0.7500000000000003 0.0
    vertex 31.44888873943358 -0.38822856765378205 15.0
    vertex 31.44888873943358 -0.38822856765378205 0.0
  endloop
endfacet
facet normal -0.5000000000000008 -0.8660254037844383 0.0
  outer loop
    vertex 30.74999999999998 1.299038105676658 15.0
    vertex 30.38822856765376 1.4488887394336032 0.0
    vertex 30.74999999999998 1.299038105676658 0.0
  endloop
endfacet
facet normal -0.2588190451025209 -0.9659258262890682 0.0
  outer loop
    vertex 30.38822856765376 1.4488887394336032 0.0
    vertex 30.74999999999998 1.299038105676658 15.0
    vertex 30.38822856765376 1.4488887394336032 15.0
  endloop
endfacet
facet normal 0.8660254037844386 -0.5000000000000003 0.0
  outer loop
    vertex 28.700961894323317 0.7500000000000008 0.0
    vertex 28.551111260566376 0.38822856765378205 15.0
    vertex 28.551111260566376 0.38822856765378205 0.0
  endloop
endfacet
facet normal 0.9659258262890686 -0.2588190451025201 0.0
  outer loop
    vertex 28.551111260566376 0.38822856765378205 15.0
    vertex 28.700961894323317 0.7500000000000008 0.0
    vertex 28.700961894323317 0.7500000000000008 15.0
  endloop
endfacet
facet normal -0.2588190451025209 -0.9659258262890682 0.0
  outer loop
    vertex 30.38822856765376 1.4488887394336032 15.0
    vertex 29.99999999999998 1.5000000000000007 0.0
    vertex 30.38822856765376 1.4488887394336032 0.0
  endloop
endfacet
facet normal 0.0 -1.0 0.0
  outer loop
    vertex 29.99999999999998 1.5000000000000007 0.0
    vertex 30.38822856765376 1.4488887394336032 15.0
    vertex 29.99999999999998 1.5000000000000007 15.0
  endloop
endfacet
endsolid Untitled-54f31d52
